<?xml version="1.0" encoding="UTF-8" standalone="no"?>
<!-- Created with Inkscape (http://www.inkscape.org/) -->

<svg
   width="85.389488mm"
   height="89.093559mm"
   viewBox="0 0 85.389488 89.093559"
   version="1.1"
   id="svg1"
   xml:space="preserve"
   inkscape:version="1.4 (e7c3feb1, 2024-10-09)"
   sodipodi:docname="index-one-vertical.svg"
   xmlns:inkscape="http://www.inkscape.org/namespaces/inkscape"
   xmlns:sodipodi="http://sodipodi.sourceforge.net/DTD/sodipodi-0.dtd"
   xmlns="http://www.w3.org/2000/svg"
   xmlns:svg="http://www.w3.org/2000/svg"><sodipodi:namedview
     id="namedview1"
     pagecolor="#ffffff"
     bordercolor="#000000"
     borderopacity="0.25"
     inkscape:showpageshadow="2"
     inkscape:pageopacity="0.0"
     inkscape:pagecheckerboard="0"
     inkscape:deskcolor="#d1d1d1"
     inkscape:document-units="mm"
     inkscape:zoom="1.2711951"
     inkscape:cx="465.31016"
     inkscape:cy="231.27842"
     inkscape:window-width="2560"
     inkscape:window-height="1323"
     inkscape:window-x="0"
     inkscape:window-y="25"
     inkscape:window-maximized="1"
     inkscape:current-layer="layer2"
     showguides="true"><sodipodi:guide
       position="4.3142258,166.69007"
       orientation="0,-1"
       id="guide3"
       inkscape:locked="false" /><sodipodi:guide
       position="-74.778016,150.45534"
       orientation="0,-1"
       id="guide4"
       inkscape:locked="false" /><sodipodi:guide
       position="-9.2030463e-08,36.851638"
       orientation="1,0"
       id="guide1"
       inkscape:locked="false" /><sodipodi:guide
       position="85.128223,65.158334"
       orientation="1,0"
       id="guide2"
       inkscape:locked="false" /></sodipodi:namedview><defs
     id="defs1" /><g
     inkscape:label="Information Triangle"
     inkscape:groupmode="layer"
     id="layer1"
     transform="translate(-12.961185,-53.265855)"><path
       sodipodi:type="star"
       style="fill:#ffffff;stroke-width:0.264583"
       id="path1"
       inkscape:flatsided="false"
       sodipodi:sides="3"
       sodipodi:cx="91.164215"
       sodipodi:cy="49.328583"
       sodipodi:r1="41.28159"
       sodipodi:r2="20.640795"
       sodipodi:arg1="0.52359878"
       sodipodi:arg2="1.5707963"
       inkscape:rounded="0"
       inkscape:randomized="0"
       d="m 126.91512,69.969378 -35.750904,0 -35.750906,-1e-6 L 73.288762,39.008186 91.164215,8.0469933 109.03967,39.008185 Z"
       inkscape:transform-center-y="-10.861156"
       transform="matrix(1.0523969,0,0,1.0523969,-39.743823,51.404594)"
       inkscape:transform-center-x="2.0342132e-06" /><path
       style="fill:#000000"
       d="m 13.039687,127.03885 c -0.160455,-0.10156 -0.09235,-0.30088 0.367219,-1.07482 0.724622,-1.22029 2.481203,-4.30414 3.86565,-6.78653 1.866625,-3.34697 5.627293,-9.93117 6.667082,-11.67278 0.547563,-0.91715 1.02104,-1.7336 1.052172,-1.81435 0.03113,-0.0807 0.58363,-1.05 1.227772,-2.1539 0.644142,-1.10391 1.6134,-2.76729 2.153906,-3.696397 0.540505,-0.92911 1.357934,-2.33364 1.816507,-3.12117 0.458574,-0.78754 1.024993,-1.77827 1.258709,-2.20163 0.429005,-0.77712 1.889921,-3.29729 3.46702,-5.98082 0.471627,-0.8025 1.314569,-2.27202 1.873204,-3.2656 0.558634,-0.99357 1.52811,-2.68196 2.154389,-3.75196 0.62628,-1.070006 1.6274,-2.789657 2.224712,-3.821447 0.597312,-1.031791 1.412647,-2.438777 1.811856,-3.126638 0.399209,-0.68786 0.974617,-1.688384 1.278684,-2.223386 0.304066,-0.535003 1.133573,-1.973256 1.843348,-3.196118 1.410491,-2.430118 3.514109,-6.076671 4.668017,-8.091852 0.78615,-1.37293 2.185281,-3.746309 3.666888,-6.220224 0.503177,-0.840182 1.016081,-1.547095 1.139786,-1.570918 0.224199,-0.04318 0.538028,0.443051 3.031344,4.69658 2.977024,5.078722 3.81575,6.518499 4.85703,8.3377 0.634326,1.108219 1.356607,2.358874 1.605068,2.779233 0.248461,0.420359 1.064755,1.827346 1.813986,3.126637 0.749231,1.299292 1.671291,2.893877 2.049022,3.543522 0.377731,0.649646 1.389572,2.400563 2.248537,3.890927 0.858965,1.490364 2.015562,3.491414 2.570216,4.446774 2.307337,3.97426 3.692153,6.3775 4.185582,7.26373 0.288148,0.51754 0.83135,1.45553 1.207114,2.08443 0.642742,1.07572 2.536118,4.33336 3.076528,5.29331 0.134957,0.23973 0.608693,1.0612 1.052746,1.825487 0.444053,0.76429 1.131743,1.95241 1.528201,2.64027 0.396457,0.68786 1.315375,2.28244 2.042039,3.54352 0.726663,1.26108 1.68539,2.91819 2.130504,3.68248 0.752239,1.29165 1.801966,3.09908 4.963456,8.54615 0.687575,1.18464 1.437575,2.49783 1.666675,2.91819 0.2291,0.42036 0.46366,0.82682 0.52125,0.90325 0.42188,0.55989 2.22477,3.88569 2.22477,4.10404 0,0.27111 -0.33436,0.27324 -42.556996,0.27113 -24.879586,-0.001 -42.638831,-0.0539 -42.753993,-0.12682 z m 77.221647,-4.75323 c 0.02404,-0.12483 -0.272136,-0.76169 -0.658166,-1.41526 -0.38603,-0.65356 -0.701873,-1.22963 -0.701873,-1.28016 0,-0.0505 -0.117443,-0.25786 -0.260986,-0.46073 -0.25168,-0.35571 -1.794295,-3.00094 -3.740247,-6.41369 -0.19611,-0.34393 -0.883995,-1.53205 -1.528635,-2.64027 -2.190531,-3.76581 -3.184841,-5.48563 -4.338382,-7.50393 -0.633392,-1.10822 -1.574101,-2.734067 -2.090464,-3.612997 -0.516363,-0.87894 -1.064679,-1.82547 -1.218481,-2.10341 -0.153802,-0.27795 -0.764962,-1.341 -1.358133,-2.36235 -0.593171,-1.02135 -1.494596,-2.57613 -2.003167,-3.45506 -0.50857,-0.87893 -1.417016,-2.44225 -2.01877,-3.47404 -0.601753,-1.03179 -1.190531,-2.06524 -1.308395,-2.29655 -0.117865,-0.23131 -0.658194,-1.1693 -1.200733,-2.08443 -0.542538,-0.91512 -1.453927,-2.476777 -2.025307,-3.470353 -1.908097,-3.317998 -3.352041,-5.819032 -4.492767,-7.781853 -0.62185,-1.070005 -1.621226,-2.789656 -2.220835,-3.821446 -0.599608,-1.03179 -1.564295,-2.704541 -2.143749,-3.717224 -0.812062,-1.419205 -1.118726,-1.841242 -1.337894,-1.841242 -0.211698,0 -0.476805,0.328401 -1.037656,1.285395 -1.2563,2.143656 -3.064442,5.261555 -3.606271,6.218534 -0.281276,0.496788 -1.125798,1.966308 -1.876717,3.265599 -2.742063,4.744503 -3.801887,6.577637 -5.101623,8.82407 -0.729633,1.26107 -1.670285,2.88692 -2.090339,3.613 -0.420054,0.72607 -1.157673,2.008 -1.639153,2.84871 -0.481481,0.84072 -1.240767,2.14048 -1.687303,2.88835 -0.446535,0.74788 -0.811883,1.37986 -0.811883,1.40442 0,0.0246 -0.323048,0.60078 -0.717886,1.2805 -0.394837,0.67972 -0.949464,1.64232 -1.232503,2.13911 -0.731338,1.28363 -2.768137,4.808937 -4.375647,7.573407 -0.755526,1.29929 -1.641952,2.83134 -1.969835,3.40456 -1.130847,1.97698 -2.338197,4.05827 -3.481129,6.00093 -0.630538,1.07174 -1.146434,1.96743 -1.146434,1.99043 0,0.023 -0.581742,1.03269 -1.292761,2.24376 -2.663506,4.53672 -2.751892,4.71165 -2.505249,4.95829 0.0511,0.0511 15.636534,0.0772 34.63429,0.0579 31.828353,-0.0323 34.544808,-0.0528 34.585083,-0.26197 z m -58.283417,-6.30255 c -0.08268,-0.21545 -0.01367,-0.34722 1.965794,-3.75365 0.666188,-1.14644 1.837456,-3.17875 2.602819,-4.51626 0.765364,-1.3375 1.810637,-3.15095 2.32283,-4.02989 0.924795,-1.58696 1.764892,-3.03944 4.380384,-7.573407 2.289925,-3.9696 3.423019,-5.92472 4.107307,-7.08704 0.359966,-0.61143 0.934108,-1.61196 1.275872,-2.22339 0.581423,-1.04019 3.524074,-6.119995 5.700043,-9.839805 0.527985,-0.902587 1.054039,-1.677164 1.169008,-1.721282 0.298888,-0.114694 0.457005,0.09225 1.613441,2.111696 0.568972,0.993575 1.649573,2.869558 2.401336,4.168851 0.751762,1.29929 1.750208,3.05021 2.218767,3.89092 0.468559,0.84072 1.300927,2.25483 1.849706,3.14247 0.54878,0.88763 0.997781,1.64856 0.997781,1.69095 0,0.0424 0.385047,0.72313 0.855659,1.51276 0.470612,0.78962 1.085587,1.84214 1.366612,2.33893 0.281024,0.49679 1.12691,1.96631 1.879745,3.2656 0.752835,1.29929 1.909616,3.300337 2.570624,4.446767 0.661007,1.14643 1.690424,2.92862 2.287593,3.96041 0.597169,1.03179 1.771437,3.0641 2.609484,4.51625 0.838047,1.45215 1.89863,3.28122 2.35685,4.0646 0.470603,0.80455 0.798317,1.51504 0.753129,1.6328 -0.07068,0.18419 -2.824687,0.20847 -23.642723,0.20847 -20.730852,0 -23.572258,-0.0249 -23.642061,-0.20675 z m 26.132006,-3.62956 c 0.196704,-0.0755 0.219808,-0.87796 0.219808,-7.63469 0,-4.56916 -0.05164,-7.582257 -0.13079,-7.631177 -0.100262,-0.062 -5.701068,-0.10181 -10.746775,-0.0765 l -0.38596,0.002 0.03856,1.98021 0.03856,1.980197 2.802768,0.0695 c 1.541522,0.0382 2.841863,0.10875 2.889648,0.15674 0.04778,0.048 0.0828,2.47283 0.07782,5.38854 -0.0059,3.47247 0.04155,5.39586 0.137658,5.57543 0.137148,0.25627 0.29972,0.27415 2.49281,0.27415 1.290352,0 2.445008,-0.038 2.565902,-0.0844 z M 57.247841,94.472923 c 0.338266,-0.19824 0.794052,-0.61876 1.012857,-0.9345 0.35885,-0.51782 0.397128,-0.68279 0.390683,-1.68375 -0.0066,-1.01779 -0.04137,-1.15222 -0.42048,-1.62336 -0.84778,-1.0536 -1.920613,-1.50498 -3.249697,-1.36727 -1.629427,0.16883 -2.730257,1.21333 -2.866895,2.72019 -0.191747,2.11463 1.181176,3.39697 3.525721,3.2931 0.764216,-0.0339 1.134379,-0.12696 1.607811,-0.40441 z"
       id="path3"
       sodipodi:nodetypes="cssssssssssssssssssssssssssssssssssssccssssssssssssssssssssssssssssssssssscsssssssssssssssssssssssssssccccccscsssssscssscs" /></g><g
     inkscape:groupmode="layer"
     id="layer2"
     inkscape:label="index.one"
     transform="translate(-12.961185,-53.265855)"><path
       d="m 35.082569,142.32387 c -1.711392,-0.23631 -2.774775,-1.79621 -2.773751,-4.06891 4.47e-4,-1.28079 0.380181,-2.32867 1.143603,-3.15688 0.511675,-0.5551 1.431398,-0.9562 2.192577,-0.9562 0.422517,0 0.985539,0.1788 1.347758,0.42801 0.159377,0.10966 0.31994,0.18933 0.356789,0.17705 0.0463,-0.0155 0.06372,-0.56066 0.05636,-1.76719 l -0.01064,-1.74485 h 1.299424 1.299418 l 0.03591,0.20101 c 0.01969,0.11056 0.02792,2.56681 0.01827,5.45832 l -0.01759,5.25731 H 38.958324 37.88595 l -0.105375,-0.30495 c -0.05795,-0.16773 -0.135491,-0.31501 -0.172307,-0.32728 -0.03679,-0.0123 -0.146996,0.0451 -0.24482,0.12737 -0.646515,0.544 -1.471481,0.78893 -2.280798,0.67719 z m 1.573515,-2.21164 c 0.209607,-0.0558 0.407852,-0.16086 0.525726,-0.27866 l 0.18923,-0.18911 0.02028,-1.25064 c 0.0269,-1.65717 0.01371,-1.73562 -0.31726,-1.895 -0.80484,-0.38751 -1.595876,-0.0905 -1.896071,0.7118 -0.161298,0.4311 -0.177844,1.55975 -0.03018,2.05705 0.147074,0.49525 0.618367,0.90083 1.078982,0.92854 0.05102,0.003 0.244194,-0.0348 0.429274,-0.084 z m 8.972025,2.21987 c -0.08504,-0.015 -0.321621,-0.0569 -0.525727,-0.0932 -0.20411,-0.0363 -0.646382,-0.17986 -0.982829,-0.31914 -0.548641,-0.22712 -0.664158,-0.30477 -1.12011,-0.75298 -0.838401,-0.82413 -1.158767,-1.62919 -1.158767,-2.9119 0,-0.85859 0.08993,-1.26911 0.422821,-1.93016 0.502375,-0.99763 1.395013,-1.69581 2.616759,-2.04673 0.490842,-0.14097 1.706342,-0.1321 2.201347,0.0161 1.248547,0.37374 2.083699,1.23857 2.421288,2.50731 0.113386,0.42614 0.155468,1.67844 0.06703,1.99469 l -0.04757,0.17009 h -2.344089 c -1.289248,0 -2.388113,0.0169 -2.441924,0.0375 -0.139182,0.0534 -0.121162,0.23762 0.0494,0.50488 0.318912,0.49975 0.778763,0.74781 1.481467,0.79914 0.434702,0.0318 1.345528,-0.0607 1.48562,-0.1507 0.124096,-0.0797 0.499367,-0.19935 0.628573,-0.20032 0.08563,-4.4e-4 0.174237,0.091 0.283214,0.29286 0.08722,0.16158 0.263977,0.48477 0.392796,0.71818 l 0.234213,0.42441 -0.14632,0.14155 c -0.174679,0.16902 -1.29419,0.60456 -1.816286,0.70664 -0.403606,0.0789 -1.452515,0.13545 -1.700898,0.0916 z m 1.472054,-4.96504 c 0.105879,-0.0672 0.113184,-0.23663 0.0219,-0.509 -0.181039,-0.54043 -0.80379,-0.79275 -1.547968,-0.62718 -0.323733,0.072 -0.441841,0.13538 -0.661066,0.35461 -0.293234,0.29324 -0.425423,0.67827 -0.267256,0.77845 0.108476,0.0687 2.346471,0.0716 2.454354,0.003 z m 17.125407,4.9008 c -0.452845,-0.13914 -0.872094,-0.47409 -1.138404,-0.90949 -0.231186,-0.37798 -0.23363,-0.38878 -0.23363,-1.03142 0,-0.6458 0.0014,-0.65156 0.237676,-1.03106 0.438921,-0.70473 1.285461,-1.09758 2.043685,-0.94841 0.482537,0.0949 0.790439,0.25455 1.112329,0.57662 1.069591,1.07023 0.618048,2.85898 -0.844505,3.34548 -0.362003,0.12041 -0.781669,0.11981 -1.177151,-0.002 z m 9.513691,0.0609 c -0.06803,-0.0137 -0.2907,-0.0558 -0.494805,-0.0936 -0.972864,-0.17976 -2.045826,-0.96283 -2.5441,-1.85674 -0.58825,-1.05533 -0.696431,-2.40204 -0.292317,-3.63886 0.360225,-1.10248 1.475616,-2.11149 2.712713,-2.45401 0.494854,-0.13701 1.663646,-0.13928 2.144501,-0.004 1.307033,0.36725 2.304366,1.29267 2.74918,2.55095 0.162234,0.4589 0.17492,0.56211 0.17492,1.42256 0,0.86044 -0.01269,0.96367 -0.17492,1.42257 -0.347157,0.98202 -1.061824,1.79862 -1.955379,2.23423 -0.455894,0.22225 -0.61772,0.27135 -1.299262,0.39422 -0.337328,0.0609 -0.782555,0.0707 -1.020531,0.0228 z m 0.966592,-2.21286 c 0.284144,-0.11903 0.45189,-0.31381 0.617206,-0.71668 0.120293,-0.29312 0.139593,-0.45138 0.139593,-1.14423 0,-0.69286 -0.01931,-0.85111 -0.139593,-1.14424 -0.246682,-0.60116 -0.529299,-0.80406 -1.119919,-0.80406 -0.617852,0 -0.906965,0.22483 -1.149958,0.89426 -0.121499,0.33472 -0.148912,0.52874 -0.148912,1.05404 0,0.97768 0.274047,1.63563 0.773133,1.85619 0.248844,0.10998 0.771473,0.11239 1.02845,0.005 z m 18.176195,2.19418 c -0.997931,-0.17894 -1.46368,-0.35491 -2.08017,-0.78598 -0.691463,-0.48349 -1.140369,-1.12798 -1.416716,-2.03395 -0.201857,-0.66179 -0.214633,-1.69718 -0.02891,-2.34867 0.413429,-1.45079 1.41735,-2.4446 2.886689,-2.85766 0.481928,-0.13548 1.715818,-0.13821 2.185453,-0.005 1.757325,0.49907 2.699676,1.96312 2.582819,4.01272 -0.01678,0.2949 -0.04985,0.56731 -0.07336,0.60538 -0.03033,0.049 -0.724523,0.0692 -2.384383,0.0692 -1.287888,0 -2.385643,0.0169 -2.439451,0.0375 -0.128619,0.0494 -0.123463,0.16481 0.01981,0.44426 0.209107,0.40776 0.597505,0.67721 1.176054,0.8159 0.476677,0.11425 1.353638,0.0459 1.941116,-0.15129 0.256887,-0.0863 0.508865,-0.1568 0.559952,-0.1568 0.107787,0 0.859958,1.32729 0.831628,1.46748 -0.03886,0.19202 -1.012197,0.60384 -1.935932,0.81906 -0.397345,0.0926 -1.464874,0.13215 -1.824591,0.0677 z m 1.633993,-4.92762 c 0.130193,-0.0499 0.12353,-0.26334 -0.01858,-0.59487 -0.13732,-0.32035 -0.35148,-0.47635 -0.795893,-0.57975 -0.565024,-0.13146 -1.177069,0.0772 -1.515346,0.5164 -0.160599,0.20856 -0.228737,0.55465 -0.128856,0.65453 0.05156,0.0516 2.325096,0.055 2.458663,0.004 z m -77.619492,4.72273 c -0.01597,-0.0425 -0.03596,-1.32978 -0.04449,-2.8606 l -0.01553,-2.78327 -1.417659,-0.0166 c -0.934829,-0.011 -1.446176,-0.0403 -1.501399,-0.0862 -0.06528,-0.0542 -0.07999,-0.28231 -0.06675,-1.03482 l 0.01699,-0.96531 2.82966,-0.0161 2.829674,-0.0161 v 3.92815 3.92814 H 18.22624 c -0.983966,0 -1.30786,-0.0188 -1.329761,-0.0773 z m 6.198495,0.0373 c -0.06034,-0.0604 -0.05102,-7.64387 0.0096,-7.73923 0.03807,-0.06 0.300539,-0.0748 1.095481,-0.0619 l 1.045426,0.017 0.04341,0.15463 c 0.02387,0.085 0.06626,0.26566 0.0942,0.40137 0.06422,0.31207 0.192385,0.34092 0.462277,0.10408 0.281435,-0.24697 0.951369,-0.60832 1.357444,-0.73218 0.432008,-0.13176 1.411824,-0.1448 1.787482,-0.0238 0.764236,0.24617 1.220099,0.77511 1.521897,1.76586 0.10241,0.33619 0.113238,0.6417 0.115095,3.24716 l 0.0025,2.87606 -1.311118,0.0167 -1.311124,0.0167 -0.01866,-2.52163 c -0.02073,-2.8041 -0.02876,-2.86152 -0.432444,-3.10764 -0.409034,-0.24938 -0.967847,-0.14943 -1.534524,0.27446 l -0.216482,0.16193 -0.03092,2.57976 -0.03092,2.57975 -1.302824,0.0166 c -0.716549,0.009 -1.321917,-0.003 -1.345254,-0.0258 z m 27.975927,-0.023 c 0,-0.0674 0.136835,-0.29435 0.651838,-1.08115 1.199409,-1.83237 1.822201,-2.83743 1.822201,-2.94066 0,-0.10851 -0.393837,-0.73533 -1.801956,-2.86796 -0.267589,-0.40527 -0.486532,-0.77406 -0.486532,-0.81952 0,-0.0665 0.264872,-0.0827 1.35114,-0.0827 1.492897,0 1.409267,-0.0215 1.65663,0.42557 0.06364,0.115 0.143532,0.25416 0.177555,0.30925 0.176785,0.2863 0.749626,1.28573 0.846186,1.47633 0.08375,0.16533 0.287197,0.18398 0.337534,0.0309 0.01955,-0.0595 0.07626,-0.20565 0.125943,-0.3247 0.04969,-0.11908 0.113165,-0.27215 0.141068,-0.34018 0.09954,-0.24272 0.407353,-0.91972 0.55941,-1.23038 l 0.15463,-0.3159 1.345249,-0.0167 c 1.065015,-0.0132 1.345254,-7e-5 1.345254,0.063 0,0.0439 -0.19483,0.39478 -0.432953,0.77988 -0.238128,0.38511 -0.432958,0.70832 -0.432958,0.71827 0,0.01 -0.333993,0.5651 -0.742203,1.23368 -0.408216,0.66858 -0.742209,1.24189 -0.742209,1.27403 0,0.0321 0.151397,0.27467 0.336438,0.53898 0.524688,0.74945 1.110384,1.58847 1.673949,2.39793 0.284204,0.40822 0.495883,0.76365 0.470397,0.78984 -0.02548,0.0263 -0.655399,0.0401 -1.399796,0.0309 l -1.353451,-0.0167 -0.172057,-0.24741 c -0.09464,-0.13607 -0.443111,-0.67185 -0.774394,-1.19063 -0.331278,-0.51878 -0.634706,-0.94322 -0.67427,-0.94322 -0.03954,0 -0.12048,0.10438 -0.179794,0.23194 -0.180984,0.38922 -0.874467,1.76562 -0.997019,1.97883 l -0.11532,0.20063 -1.345249,3.9e-4 c -0.873334,2.5e-4 -1.345261,-0.0217 -1.345261,-0.0627 z m 28.975016,-0.013 c -0.01651,-0.0432 -0.02283,-1.80418 -0.01402,-3.91328 l 0.01602,-3.83475 h 1.082388 1.082388 l 0.06864,0.34751 c 0.110264,0.55827 0.192375,0.60625 0.532257,0.31097 1.215362,-1.05584 3.151791,-1.16056 4.014246,-0.21707 0.248348,0.27167 0.463209,0.68697 0.619618,1.19764 0.139273,0.45471 0.142116,0.52007 0.144164,3.30901 l 0.0028,2.84512 -1.308492,0.0167 -1.308498,0.0167 -0.02548,-2.52163 c -0.02832,-2.79807 -0.03758,-2.8643 -0.436202,-3.1144 -0.160484,-0.10069 -0.280553,-0.12107 -0.615295,-0.10441 -0.370773,0.0184 -0.454658,0.0481 -0.773129,0.27325 l -0.357236,0.25257 -0.03092,2.59064 -0.03092,2.59062 -1.315794,0.0167 c -1.018997,0.0129 -1.322568,-9.4e-4 -1.345827,-0.0619 z m -62.553992,-8.90218 c -0.30603,-0.088 -0.603883,-0.30895 -0.829047,-0.6151 -0.187618,-0.25512 -0.197441,-0.29626 -0.197441,-0.82685 0,-0.51234 0.0146,-0.57989 0.176869,-0.81909 0.35578,-0.52438 0.776862,-0.72875 1.493102,-0.72464 0.597274,0.004 0.975049,0.15993 1.298728,0.53807 0.28313,0.33077 0.358122,0.58522 0.329318,1.11733 -0.0194,0.35814 -0.05722,0.49279 -0.197001,0.70118 -0.199059,0.29676 -0.532203,0.53637 -0.880042,0.63295 -0.292224,0.0811 -0.905667,0.0791 -1.194486,-0.004 z"
       style="fill:#000000;stroke-width:0.445092"
       id="path1-0" /></g></svg>
