<?xml version="1.0" encoding="UTF-8" standalone="no"?>
<!-- Created with Inkscape (http://www.inkscape.org/) -->

<svg
   width="256.18936mm"
   height="73.900108mm"
   viewBox="0 0 256.18936 73.900108"
   version="1.1"
   id="svg1"
   xml:space="preserve"
   inkscape:version="1.4 (e7c3feb1, 2024-10-09)"
   sodipodi:docname="index-logo-horz.svg"
   xmlns:inkscape="http://www.inkscape.org/namespaces/inkscape"
   xmlns:sodipodi="http://sodipodi.sourceforge.net/DTD/sodipodi-0.dtd"
   xmlns="http://www.w3.org/2000/svg"
   xmlns:svg="http://www.w3.org/2000/svg"><sodipodi:namedview
     id="namedview1"
     pagecolor="#ffffff"
     bordercolor="#000000"
     borderopacity="0.25"
     inkscape:showpageshadow="2"
     inkscape:pageopacity="0.0"
     inkscape:pagecheckerboard="0"
     inkscape:deskcolor="#d1d1d1"
     inkscape:document-units="mm"
     inkscape:zoom="1.2711951"
     inkscape:cx="464.91685"
     inkscape:cy="231.27843"
     inkscape:window-width="2560"
     inkscape:window-height="1387"
     inkscape:window-x="2560"
     inkscape:window-y="25"
     inkscape:window-maximized="1"
     inkscape:current-layer="layer2"
     showguides="true"><sodipodi:guide
       position="4.3142259,166.69007"
       orientation="0,-1"
       id="guide3"
       inkscape:locked="false" /><sodipodi:guide
       position="-74.778016,150.45534"
       orientation="0,-1"
       id="guide4"
       inkscape:locked="false" /></sodipodi:namedview><defs
     id="defs1" /><g
     inkscape:label="Information Triangle"
     inkscape:groupmode="layer"
     id="layer1"
     transform="translate(-12.961185,-53.265855)"><path
       sodipodi:type="star"
       style="fill:#ffffff;stroke-width:0.264583"
       id="path1"
       inkscape:flatsided="false"
       sodipodi:sides="3"
       sodipodi:cx="91.164215"
       sodipodi:cy="49.328583"
       sodipodi:r1="41.28159"
       sodipodi:r2="20.640795"
       sodipodi:arg1="0.52359878"
       sodipodi:arg2="1.5707963"
       inkscape:rounded="0"
       inkscape:randomized="0"
       d="m 126.91512,69.969378 -35.750904,0 -35.750906,-1e-6 L 73.288762,39.008186 91.164215,8.0469933 109.03967,39.008185 Z"
       inkscape:transform-center-y="-10.861156"
       transform="matrix(1.0523969,0,0,1.0523969,-39.743823,51.404594)"
       inkscape:transform-center-x="2.0342132e-06" /><path
       style="fill:#000000"
       d="m 13.039687,127.03885 c -0.160455,-0.10156 -0.09235,-0.30088 0.367219,-1.07482 0.724622,-1.22029 2.481203,-4.30414 3.86565,-6.78653 1.866625,-3.34697 5.627293,-9.93117 6.667082,-11.67278 0.547563,-0.91715 1.02104,-1.7336 1.052172,-1.81435 0.03113,-0.0807 0.58363,-1.05 1.227772,-2.1539 0.644142,-1.10391 1.6134,-2.76729 2.153906,-3.696397 0.540505,-0.92911 1.357934,-2.33364 1.816507,-3.12117 0.458574,-0.78754 1.024993,-1.77827 1.258709,-2.20163 0.429005,-0.77712 1.889921,-3.29729 3.46702,-5.98082 0.471627,-0.8025 1.314569,-2.27202 1.873204,-3.2656 0.558634,-0.99357 1.52811,-2.68196 2.154389,-3.75196 0.62628,-1.070006 1.6274,-2.789657 2.224712,-3.821447 0.597312,-1.031791 1.412647,-2.438777 1.811856,-3.126638 0.399209,-0.68786 0.974617,-1.688384 1.278684,-2.223386 0.304066,-0.535003 1.133573,-1.973256 1.843348,-3.196118 1.410491,-2.430118 3.514109,-6.076671 4.668017,-8.091852 0.78615,-1.37293 2.185281,-3.746309 3.666888,-6.220224 0.503177,-0.840182 1.016081,-1.547095 1.139786,-1.570918 0.224199,-0.04318 0.538028,0.443051 3.031344,4.69658 2.977024,5.078722 3.81575,6.518499 4.85703,8.3377 0.634326,1.108219 1.356607,2.358874 1.605068,2.779233 0.248461,0.420359 1.064755,1.827346 1.813986,3.126637 0.749231,1.299292 1.671291,2.893877 2.049022,3.543522 0.377731,0.649646 1.389572,2.400563 2.248537,3.890927 0.858965,1.490364 2.015562,3.491414 2.570216,4.446774 2.307337,3.97426 3.692153,6.3775 4.185582,7.26373 0.288148,0.51754 0.83135,1.45553 1.207114,2.08443 0.642742,1.07572 2.536118,4.33336 3.076528,5.29331 0.134957,0.23973 0.608693,1.0612 1.052746,1.825487 0.444053,0.76429 1.131743,1.95241 1.528201,2.64027 0.396457,0.68786 1.315375,2.28244 2.042039,3.54352 0.726663,1.26108 1.68539,2.91819 2.130504,3.68248 0.752239,1.29165 1.801966,3.09908 4.963456,8.54615 0.687575,1.18464 1.437575,2.49783 1.666675,2.91819 0.2291,0.42036 0.46366,0.82682 0.52125,0.90325 0.42188,0.55989 2.22477,3.88569 2.22477,4.10404 0,0.27111 -0.33436,0.27324 -42.556996,0.27113 -24.879586,-0.001 -42.638831,-0.0539 -42.753993,-0.12682 z m 77.221647,-4.75323 c 0.02404,-0.12483 -0.272136,-0.76169 -0.658166,-1.41526 -0.38603,-0.65356 -0.701873,-1.22963 -0.701873,-1.28016 0,-0.0505 -0.117443,-0.25786 -0.260986,-0.46073 -0.25168,-0.35571 -1.794295,-3.00094 -3.740247,-6.41369 -0.19611,-0.34393 -0.883995,-1.53205 -1.528635,-2.64027 -2.190531,-3.76581 -3.184841,-5.48563 -4.338382,-7.50393 -0.633392,-1.10822 -1.574101,-2.734067 -2.090464,-3.612997 -0.516363,-0.87894 -1.064679,-1.82547 -1.218481,-2.10341 -0.153802,-0.27795 -0.764962,-1.341 -1.358133,-2.36235 -0.593171,-1.02135 -1.494596,-2.57613 -2.003167,-3.45506 -0.50857,-0.87893 -1.417016,-2.44225 -2.01877,-3.47404 -0.601753,-1.03179 -1.190531,-2.06524 -1.308395,-2.29655 -0.117865,-0.23131 -0.658194,-1.1693 -1.200733,-2.08443 -0.542538,-0.91512 -1.453927,-2.476777 -2.025307,-3.470353 -1.908097,-3.317998 -3.352041,-5.819032 -4.492767,-7.781853 -0.62185,-1.070005 -1.621226,-2.789656 -2.220835,-3.821446 -0.599608,-1.03179 -1.564295,-2.704541 -2.143749,-3.717224 -0.812062,-1.419205 -1.118726,-1.841242 -1.337894,-1.841242 -0.211698,0 -0.476805,0.328401 -1.037656,1.285395 -1.2563,2.143656 -3.064442,5.261555 -3.606271,6.218534 -0.281276,0.496788 -1.125798,1.966308 -1.876717,3.265599 -2.742063,4.744503 -3.801887,6.577637 -5.101623,8.82407 -0.729633,1.26107 -1.670285,2.88692 -2.090339,3.613 -0.420054,0.72607 -1.157673,2.008 -1.639153,2.84871 -0.481481,0.84072 -1.240767,2.14048 -1.687303,2.88835 -0.446535,0.74788 -0.811883,1.37986 -0.811883,1.40442 0,0.0246 -0.323048,0.60078 -0.717886,1.2805 -0.394837,0.67972 -0.949464,1.64232 -1.232503,2.13911 -0.731338,1.28363 -2.768137,4.808937 -4.375647,7.573407 -0.755526,1.29929 -1.641952,2.83134 -1.969835,3.40456 -1.130847,1.97698 -2.338197,4.05827 -3.481129,6.00093 -0.630538,1.07174 -1.146434,1.96743 -1.146434,1.99043 0,0.023 -0.581742,1.03269 -1.292761,2.24376 -2.663506,4.53672 -2.751892,4.71165 -2.505249,4.95829 0.0511,0.0511 15.636534,0.0772 34.63429,0.0579 31.828353,-0.0323 34.544808,-0.0528 34.585083,-0.26197 z m -58.283417,-6.30255 c -0.08268,-0.21545 -0.01367,-0.34722 1.965794,-3.75365 0.666188,-1.14644 1.837456,-3.17875 2.602819,-4.51626 0.765364,-1.3375 1.810637,-3.15095 2.32283,-4.02989 0.924795,-1.58696 1.764892,-3.03944 4.380384,-7.573407 2.289925,-3.9696 3.423019,-5.92472 4.107307,-7.08704 0.359966,-0.61143 0.934108,-1.61196 1.275872,-2.22339 0.581423,-1.04019 3.524074,-6.119995 5.700043,-9.839805 0.527985,-0.902587 1.054039,-1.677164 1.169008,-1.721282 0.298888,-0.114694 0.457005,0.09225 1.613441,2.111696 0.568972,0.993575 1.649573,2.869558 2.401336,4.168851 0.751762,1.29929 1.750208,3.05021 2.218767,3.89092 0.468559,0.84072 1.300927,2.25483 1.849706,3.14247 0.54878,0.88763 0.997781,1.64856 0.997781,1.69095 0,0.0424 0.385047,0.72313 0.855659,1.51276 0.470612,0.78962 1.085587,1.84214 1.366612,2.33893 0.281024,0.49679 1.12691,1.96631 1.879745,3.2656 0.752835,1.29929 1.909616,3.300337 2.570624,4.446767 0.661007,1.14643 1.690424,2.92862 2.287593,3.96041 0.597169,1.03179 1.771437,3.0641 2.609484,4.51625 0.838047,1.45215 1.89863,3.28122 2.35685,4.0646 0.470603,0.80455 0.798317,1.51504 0.753129,1.6328 -0.07068,0.18419 -2.824687,0.20847 -23.642723,0.20847 -20.730852,0 -23.572258,-0.0249 -23.642061,-0.20675 z m 26.132006,-3.62956 c 0.196704,-0.0755 0.219808,-0.87796 0.219808,-7.63469 0,-4.56916 -0.05164,-7.582257 -0.13079,-7.631177 -0.100262,-0.062 -5.701068,-0.10181 -10.746775,-0.0765 l -0.38596,0.002 0.03856,1.98021 0.03856,1.980197 2.802768,0.0695 c 1.541522,0.0382 2.841863,0.10875 2.889648,0.15674 0.04778,0.048 0.0828,2.47283 0.07782,5.38854 -0.0059,3.47247 0.04155,5.39586 0.137658,5.57543 0.137148,0.25627 0.29972,0.27415 2.49281,0.27415 1.290352,0 2.445008,-0.038 2.565902,-0.0844 z M 57.247841,94.472923 c 0.338266,-0.19824 0.794052,-0.61876 1.012857,-0.9345 0.35885,-0.51782 0.397128,-0.68279 0.390683,-1.68375 -0.0066,-1.01779 -0.04137,-1.15222 -0.42048,-1.62336 -0.84778,-1.0536 -1.920613,-1.50498 -3.249697,-1.36727 -1.629427,0.16883 -2.730257,1.21333 -2.866895,2.72019 -0.191747,2.11463 1.181176,3.39697 3.525721,3.2931 0.764216,-0.0339 1.134379,-0.12696 1.607811,-0.40441 z"
       id="path3"
       sodipodi:nodetypes="cssssssssssssssssssssssssssssssssssssccssssssssssssssssssssssssssssssssssscsssssssssssssssssssssssssssccccccscsssssscssscs" /></g><g
     inkscape:groupmode="layer"
     id="layer2"
     inkscape:label="index.one"
     transform="translate(-12.961185,-53.265855)"><path
       d="m 142.73416,112.88178 c -3.49296,-0.48229 -5.66333,-3.66607 -5.66124,-8.30467 9.1e-4,-2.61408 0.77595,-4.752812 2.3341,-6.443207 1.04433,-1.132955 2.92149,-1.951599 4.47506,-1.951599 0.86236,0 2.01149,0.364927 2.75078,0.873569 0.32529,0.223811 0.653,0.38642 0.72821,0.361357 0.0945,-0.03152 0.13006,-1.144309 0.11503,-3.60684 l -0.0217,-3.561255 h 2.65213 2.65212 l 0.0733,0.410277 c 0.0402,0.225646 0.057,5.23886 0.0373,11.140458 l -0.0359,10.7302 h -2.18872 -2.18872 l -0.21507,-0.62242 c -0.11828,-0.34234 -0.27654,-0.64292 -0.35168,-0.66798 -0.0751,-0.0251 -0.30002,0.092 -0.49968,0.25995 -1.31954,1.11031 -3.0033,1.61024 -4.65512,1.38216 z m 3.21155,-4.51397 c 0.42781,-0.11385 0.83243,-0.32832 1.07301,-0.56873 l 0.38622,-0.38597 0.0414,-2.55258 c 0.0549,-3.3823 0.028,-3.54241 -0.64753,-3.8677 -1.64268,-0.79093 -3.25719,-0.18483 -3.86989,1.45278 -0.32921,0.87988 -0.36298,3.18346 -0.0616,4.19845 0.30018,1.01081 1.26209,1.8386 2.20221,1.89515 0.10414,0.006 0.4984,-0.0709 0.87615,-0.1714 z m 18.31195,4.53078 c -0.17357,-0.0306 -0.65643,-0.11612 -1.07301,-0.19008 -0.41659,-0.074 -1.31927,-0.36708 -2.00596,-0.65135 -1.11978,-0.46357 -1.35555,-0.62205 -2.28615,-1.53683 -1.71118,-1.68207 -2.36505,-3.3252 -2.36505,-5.94322 0,-1.75239 0.18354,-2.59025 0.86298,-3.93947 1.02535,-2.036156 2.84723,-3.461146 5.34082,-4.177374 1.00181,-0.287746 3.48265,-0.269641 4.49296,0.0328 2.54829,0.762822 4.25284,2.527946 4.94186,5.117454 0.23142,0.86976 0.31731,3.4257 0.1368,4.07116 l -0.0971,0.34716 h -4.7843 c -2.63136,0 -4.87415,0.0345 -4.98398,0.0767 -0.28407,0.109 -0.24729,0.48497 0.10082,1.03046 0.6509,1.02 1.58946,1.52629 3.02368,1.63104 0.88723,0.0648 2.74623,-0.12376 3.03216,-0.30756 0.25328,-0.16279 1.01921,-0.40689 1.28292,-0.40887 0.17479,-9e-4 0.35562,0.18568 0.57804,0.59773 0.17802,0.32979 0.53878,0.98942 0.8017,1.46582 l 0.47803,0.8662 -0.29864,0.28893 c -0.35652,0.34495 -2.64145,1.23391 -3.70705,1.44225 -0.82376,0.16106 -2.96459,0.27645 -3.47154,0.18713 z m 3.00447,-10.13367 c 0.2161,-0.13706 0.23101,-0.48297 0.0447,-1.0389 -0.3695,-1.10301 -1.64054,-1.61799 -3.15941,-1.28006 -0.66074,0.14702 -0.9018,0.27632 -1.34924,0.72376 -0.59849,0.5985 -0.86829,1.38436 -0.54547,1.58883 0.2214,0.14023 4.78916,0.14604 5.00935,0.006 z m 34.95304,10.00255 c -0.92426,-0.284 -1.77995,-0.96763 -2.32349,-1.85628 -0.47185,-0.77147 -0.47684,-0.79349 -0.47684,-2.10512 0,-1.31809 0.003,-1.32985 0.4851,-2.1044 0.89584,-1.43836 2.62363,-2.24018 4.17117,-1.93572 0.98486,0.19376 1.61329,0.51954 2.27027,1.1769 2.18304,2.18433 1.26144,5.83517 -1.72364,6.82813 -0.73885,0.24577 -1.59539,0.24452 -2.40257,-0.004 z m 19.41749,0.12423 c -0.13886,-0.0279 -0.59332,-0.11389 -1.0099,-0.19088 -1.98562,-0.36689 -4.17554,-1.96514 -5.19252,-3.78962 -1.20062,-2.15394 -1.42142,-4.90257 -0.59662,-7.42692 0.73522,-2.250163 3.01174,-4.309575 5.53666,-5.008652 1.01,-0.279634 3.39551,-0.284267 4.37694,-0.0082 2.66766,0.749567 4.70322,2.638367 5.61109,5.206512 0.33112,0.93662 0.35701,1.14729 0.35701,2.90346 0,1.75616 -0.0259,1.96685 -0.35701,2.90346 -0.70855,2.00433 -2.16719,3.67099 -3.99094,4.56007 -0.93048,0.45362 -1.26077,0.55384 -2.6518,0.80462 -0.68849,0.12415 -1.5972,0.14441 -2.08291,0.0464 z m 1.97282,-4.51645 c 0.57994,-0.24295 0.92231,-0.6405 1.25972,-1.46275 0.24552,-0.59828 0.28491,-0.92128 0.28491,-2.33539 0,-1.41413 -0.0394,-1.73712 -0.28491,-2.3354 -0.50348,-1.22696 -1.0803,-1.64108 -2.28576,-1.64108 -1.26104,0 -1.85112,0.45887 -2.34707,1.82519 -0.24798,0.68316 -0.30393,1.07915 -0.30393,2.15129 0,1.99546 0.55933,3.33832 1.57797,3.78851 0.50789,0.22446 1.57458,0.22936 2.09907,0.01 z m 37.09771,4.47832 c -2.03679,-0.36521 -2.98738,-0.72438 -4.24565,-1.60419 -1.41128,-0.98681 -2.3275,-2.30222 -2.89151,-4.1513 -0.412,-1.35073 -0.43808,-3.46396 -0.0591,-4.79366 0.84381,-2.961037 2.89281,-4.989434 5.89175,-5.83249 0.98361,-0.276509 3.50199,-0.282077 4.46051,-0.0098 3.58672,1.018609 5.51005,4.00675 5.27155,8.18998 -0.0343,0.60189 -0.10167,1.1579 -0.14968,1.23558 -0.0619,0.10009 -1.47874,0.14121 -4.86652,0.14121 -2.6286,0 -4.86911,0.0345 -4.97894,0.0767 -0.26252,0.10073 -0.25199,0.33637 0.0405,0.90674 0.42679,0.83222 1.21952,1.38218 2.40034,1.66523 0.9729,0.2332 2.76278,0.0937 3.96182,-0.30878 0.52432,-0.17601 1.03861,-0.32002 1.14287,-0.32002 0.21999,0 1.75519,2.709 1.69735,2.99513 -0.0793,0.39192 -2.06588,1.23243 -3.95123,1.6717 -0.81099,0.18894 -2.98982,0.26974 -3.72401,0.13811 z m 3.33498,-10.0573 c 0.26572,-0.10197 0.25213,-0.53749 -0.0379,-1.21413 -0.28026,-0.65382 -0.71737,-0.97222 -1.62442,-1.18326 -1.15322,-0.26832 -2.4024,0.15737 -3.09282,1.05395 -0.32779,0.42569 -0.46685,1.13205 -0.26299,1.33591 0.10518,0.10518 4.74553,0.11213 5.01814,0.007 z m -158.42177,9.63912 c -0.0326,-0.0867 -0.0734,-2.7141 -0.0908,-5.83849 l -0.0317,-5.68068 -2.89345,-0.0339 c -1.90799,-0.0224 -2.951652,-0.0823 -3.064362,-0.17584 -0.133243,-0.11058 -0.163279,-0.57619 -0.136249,-2.112058 l 0.03468,-1.970203 5.775351,-0.0328 5.77538,-0.0328 v 8.017361 8.01736 h -2.65495 c -2.00828,0 -2.66935,-0.0384 -2.71405,-0.1578 z m 12.65116,0.0761 c -0.12314,-0.12313 -0.10413,-15.60116 0.0195,-15.795801 0.0777,-0.122393 0.6134,-0.152635 2.23588,-0.126245 l 2.13372,0.03471 0.0886,0.315599 c 0.0487,0.173575 0.13524,0.542218 0.19227,0.819199 0.13109,0.63694 0.39266,0.695825 0.94351,0.21242 0.57441,-0.504072 1.94175,-1.241585 2.77055,-1.494375 0.88173,-0.268915 2.88154,-0.295541 3.64826,-0.0486 1.55981,0.502447 2.49023,1.582012 3.1062,3.604143 0.20902,0.68616 0.23112,1.30971 0.23491,6.62747 l 0.005,5.87005 -2.676,0.034 -2.67601,0.034 -0.0381,-5.14667 c -0.0423,-5.72316 -0.0587,-5.84036 -0.88262,-6.34269 -0.83484,-0.50899 -1.97538,-0.305 -3.13197,0.56017 l -0.44184,0.3305 -0.0631,5.2653 -0.0631,5.26528 -2.65907,0.0339 c -1.46248,0.0187 -2.69804,-0.005 -2.74567,-0.0526 z m 57.09901,-0.047 c 0,-0.13758 0.27928,-0.60079 1.3304,-2.20665 2.448,-3.73987 3.71912,-5.79121 3.71912,-6.00191 0,-0.22146 -0.80382,-1.5008 -3.6778,-5.85351 -0.54615,-0.827175 -0.99301,-1.579858 -0.99301,-1.672655 0,-0.13563 0.5406,-0.168705 2.75768,-0.168705 3.04701,0 2.87632,-0.04388 3.38119,0.86859 0.12988,0.234721 0.29295,0.518753 0.36239,0.63119 0.36082,0.584332 1.52999,2.62418 1.72707,3.01321 0.17093,0.33742 0.58617,0.37547 0.68891,0.0631 0.0399,-0.12151 0.15565,-0.41974 0.25705,-0.66273 0.10142,-0.24303 0.23097,-0.555463 0.28792,-0.694318 0.20316,-0.495377 0.83141,-1.877143 1.14176,-2.511194 l 0.3156,-0.644753 2.74566,-0.03398 c 2.1737,-0.02689 2.74567,-1.36e-4 2.74567,0.128634 0,0.08948 -0.39765,0.805745 -0.88366,1.591741 -0.48602,0.785996 -0.88367,1.445692 -0.88367,1.465986 0,0.02026 -0.68168,1.153384 -1.51484,2.517954 -0.83317,1.36458 -1.51485,2.5347 -1.51485,2.60029 0,0.0656 0.309,0.56061 0.68667,1.10006 1.07089,1.52964 2.2663,3.24208 3.41654,4.89421 0.58006,0.83317 1.0121,1.5586 0.96008,1.61206 -0.052,0.0535 -1.33767,0.0818 -2.85699,0.0631 l -2.7624,-0.034 -0.35117,-0.50495 c -0.19315,-0.27772 -0.90439,-1.37125 -1.58054,-2.43007 -0.67614,-1.05883 -1.29544,-1.92512 -1.37619,-1.92512 -0.0807,0 -0.2459,0.21302 -0.36696,0.47338 -0.36939,0.79442 -1.78479,3.60364 -2.03492,4.0388 l -0.23537,0.40949 -2.74566,7.9e-4 c -1.78248,5.2e-4 -2.74568,-0.0443 -2.74568,-0.12795 z m 59.13815,-0.0266 c -0.0337,-0.0882 -0.0466,-3.68234 -0.0286,-7.98704 l 0.0327,-7.826742 h 2.20916 2.20916 l 0.14009,0.709269 c 0.22505,1.139431 0.39264,1.237351 1.08634,0.634705 2.48056,-2.154989 6.43282,-2.368707 8.1931,-0.443052 0.50689,0.554499 0.94542,1.402123 1.26465,2.44438 0.28425,0.92809 0.29006,1.06147 0.29423,6.75371 l 0.005,5.80692 -2.67065,0.034 -2.67065,0.034 -0.052,-5.14666 c -0.0578,-5.71086 -0.0767,-5.84604 -0.89029,-6.3565 -0.32755,-0.20551 -0.57261,-0.2471 -1.25582,-0.21311 -0.75675,0.0376 -0.92796,0.0982 -1.57796,0.55771 l -0.72912,0.51549 -0.0631,5.28751 -0.0631,5.28748 -2.68554,0.034 c -2.07978,0.0264 -2.69937,-0.002 -2.74684,-0.12624 z M 106.83171,94.268713 c -0.62461,-0.179506 -1.23253,-0.630553 -1.69209,-1.255429 -0.38293,-0.520687 -0.40298,-0.604654 -0.40298,-1.687608 0,-1.045663 0.0298,-1.183546 0.36099,-1.671747 0.72615,-1.070264 1.58558,-1.487381 3.04743,-1.479013 1.21904,0.0073 1.99008,0.326427 2.65071,1.098215 0.57787,0.675113 0.73093,1.194429 0.67214,2.280471 -0.0396,0.730962 -0.11679,1.005783 -0.40208,1.431103 -0.40628,0.605707 -1.08623,1.094754 -1.79617,1.291866 -0.59643,0.165599 -1.84847,0.161556 -2.43795,-0.0082 z"
       style="fill:#000000;stroke-width:0.908435"
       id="path1-0" /></g></svg>
