<?xml version="1.0" encoding="UTF-8" standalone="no"?>
<!-- Created with Inkscape (http://www.inkscape.org/) -->

<svg
   width="85.389488mm"
   height="97.930206mm"
   viewBox="0 0 85.389488 97.930206"
   version="1.1"
   id="svg1"
   xml:space="preserve"
   inkscape:version="1.4 (e7c3feb1, 2024-10-09)"
   sodipodi:docname="index-logo-vert.svg"
   xmlns:inkscape="http://www.inkscape.org/namespaces/inkscape"
   xmlns:sodipodi="http://sodipodi.sourceforge.net/DTD/sodipodi-0.dtd"
   xmlns="http://www.w3.org/2000/svg"
   xmlns:svg="http://www.w3.org/2000/svg"><sodipodi:namedview
     id="namedview1"
     pagecolor="#ffffff"
     bordercolor="#000000"
     borderopacity="0.25"
     inkscape:showpageshadow="2"
     inkscape:pageopacity="0.0"
     inkscape:pagecheckerboard="0"
     inkscape:deskcolor="#d1d1d1"
     inkscape:document-units="mm"
     inkscape:zoom="1.2711951"
     inkscape:cx="464.91685"
     inkscape:cy="231.27843"
     inkscape:window-width="2560"
     inkscape:window-height="1387"
     inkscape:window-x="2560"
     inkscape:window-y="25"
     inkscape:window-maximized="1"
     inkscape:current-layer="layer2"
     showguides="true"><sodipodi:guide
       position="4.3142257,30.590177"
       orientation="0,-1"
       id="guide3"
       inkscape:locked="false" /><sodipodi:guide
       position="-74.778015,14.355448"
       orientation="0,-1"
       id="guide4"
       inkscape:locked="false" /><sodipodi:guide
       position="-9.2030463e-08,41.222524"
       orientation="1,0"
       id="guide5"
       inkscape:locked="false" /><sodipodi:guide
       position="85.128225,-1.4456582"
       orientation="1,0"
       id="guide6"
       inkscape:locked="false" /></sodipodi:namedview><defs
     id="defs1" /><g
     inkscape:label="Information Triangle"
     inkscape:groupmode="layer"
     id="layer1"
     transform="translate(-12.961185,-53.265855)"><path
       sodipodi:type="star"
       style="fill:#ffffff;stroke-width:0.264583"
       id="path1"
       inkscape:flatsided="false"
       sodipodi:sides="3"
       sodipodi:cx="91.164215"
       sodipodi:cy="49.328583"
       sodipodi:r1="41.28159"
       sodipodi:r2="20.640795"
       sodipodi:arg1="0.52359878"
       sodipodi:arg2="1.5707963"
       inkscape:rounded="0"
       inkscape:randomized="0"
       d="m 126.91512,69.969378 -35.750904,0 -35.750906,-1e-6 L 73.288762,39.008186 91.164215,8.0469933 109.03967,39.008185 Z"
       inkscape:transform-center-y="-10.861156"
       transform="matrix(1.0523969,0,0,1.0523969,-39.743823,51.404594)"
       inkscape:transform-center-x="2.0342132e-06" /><path
       style="fill:#000000"
       d="m 13.039687,127.03885 c -0.160455,-0.10156 -0.09235,-0.30088 0.367219,-1.07482 0.724622,-1.22029 2.481203,-4.30414 3.86565,-6.78653 1.866625,-3.34697 5.627293,-9.93117 6.667082,-11.67278 0.547563,-0.91715 1.02104,-1.7336 1.052172,-1.81435 0.03113,-0.0807 0.58363,-1.05 1.227772,-2.1539 0.644142,-1.10391 1.6134,-2.76729 2.153906,-3.696397 0.540505,-0.92911 1.357934,-2.33364 1.816507,-3.12117 0.458574,-0.78754 1.024993,-1.77827 1.258709,-2.20163 0.429005,-0.77712 1.889921,-3.29729 3.46702,-5.98082 0.471627,-0.8025 1.314569,-2.27202 1.873204,-3.2656 0.558634,-0.99357 1.52811,-2.68196 2.154389,-3.75196 0.62628,-1.070006 1.6274,-2.789657 2.224712,-3.821447 0.597312,-1.031791 1.412647,-2.438777 1.811856,-3.126638 0.399209,-0.68786 0.974617,-1.688384 1.278684,-2.223386 0.304066,-0.535003 1.133573,-1.973256 1.843348,-3.196118 1.410491,-2.430118 3.514109,-6.076671 4.668017,-8.091852 0.78615,-1.37293 2.185281,-3.746309 3.666888,-6.220224 0.503177,-0.840182 1.016081,-1.547095 1.139786,-1.570918 0.224199,-0.04318 0.538028,0.443051 3.031344,4.69658 2.977024,5.078722 3.81575,6.518499 4.85703,8.3377 0.634326,1.108219 1.356607,2.358874 1.605068,2.779233 0.248461,0.420359 1.064755,1.827346 1.813986,3.126637 0.749231,1.299292 1.671291,2.893877 2.049022,3.543522 0.377731,0.649646 1.389572,2.400563 2.248537,3.890927 0.858965,1.490364 2.015562,3.491414 2.570216,4.446774 2.307337,3.97426 3.692153,6.3775 4.185582,7.26373 0.288148,0.51754 0.83135,1.45553 1.207114,2.08443 0.642742,1.07572 2.536118,4.33336 3.076528,5.29331 0.134957,0.23973 0.608693,1.0612 1.052746,1.825487 0.444053,0.76429 1.131743,1.95241 1.528201,2.64027 0.396457,0.68786 1.315375,2.28244 2.042039,3.54352 0.726663,1.26108 1.68539,2.91819 2.130504,3.68248 0.752239,1.29165 1.801966,3.09908 4.963456,8.54615 0.687575,1.18464 1.437575,2.49783 1.666675,2.91819 0.2291,0.42036 0.46366,0.82682 0.52125,0.90325 0.42188,0.55989 2.22477,3.88569 2.22477,4.10404 0,0.27111 -0.33436,0.27324 -42.556996,0.27113 -24.879586,-0.001 -42.638831,-0.0539 -42.753993,-0.12682 z m 77.221647,-4.75323 c 0.02404,-0.12483 -0.272136,-0.76169 -0.658166,-1.41526 -0.38603,-0.65356 -0.701873,-1.22963 -0.701873,-1.28016 0,-0.0505 -0.117443,-0.25786 -0.260986,-0.46073 -0.25168,-0.35571 -1.794295,-3.00094 -3.740247,-6.41369 -0.19611,-0.34393 -0.883995,-1.53205 -1.528635,-2.64027 -2.190531,-3.76581 -3.184841,-5.48563 -4.338382,-7.50393 -0.633392,-1.10822 -1.574101,-2.734067 -2.090464,-3.612997 -0.516363,-0.87894 -1.064679,-1.82547 -1.218481,-2.10341 -0.153802,-0.27795 -0.764962,-1.341 -1.358133,-2.36235 -0.593171,-1.02135 -1.494596,-2.57613 -2.003167,-3.45506 -0.50857,-0.87893 -1.417016,-2.44225 -2.01877,-3.47404 -0.601753,-1.03179 -1.190531,-2.06524 -1.308395,-2.29655 -0.117865,-0.23131 -0.658194,-1.1693 -1.200733,-2.08443 -0.542538,-0.91512 -1.453927,-2.476777 -2.025307,-3.470353 -1.908097,-3.317998 -3.352041,-5.819032 -4.492767,-7.781853 -0.62185,-1.070005 -1.621226,-2.789656 -2.220835,-3.821446 -0.599608,-1.03179 -1.564295,-2.704541 -2.143749,-3.717224 -0.812062,-1.419205 -1.118726,-1.841242 -1.337894,-1.841242 -0.211698,0 -0.476805,0.328401 -1.037656,1.285395 -1.2563,2.143656 -3.064442,5.261555 -3.606271,6.218534 -0.281276,0.496788 -1.125798,1.966308 -1.876717,3.265599 -2.742063,4.744503 -3.801887,6.577637 -5.101623,8.82407 -0.729633,1.26107 -1.670285,2.88692 -2.090339,3.613 -0.420054,0.72607 -1.157673,2.008 -1.639153,2.84871 -0.481481,0.84072 -1.240767,2.14048 -1.687303,2.88835 -0.446535,0.74788 -0.811883,1.37986 -0.811883,1.40442 0,0.0246 -0.323048,0.60078 -0.717886,1.2805 -0.394837,0.67972 -0.949464,1.64232 -1.232503,2.13911 -0.731338,1.28363 -2.768137,4.808937 -4.375647,7.573407 -0.755526,1.29929 -1.641952,2.83134 -1.969835,3.40456 -1.130847,1.97698 -2.338197,4.05827 -3.481129,6.00093 -0.630538,1.07174 -1.146434,1.96743 -1.146434,1.99043 0,0.023 -0.581742,1.03269 -1.292761,2.24376 -2.663506,4.53672 -2.751892,4.71165 -2.505249,4.95829 0.0511,0.0511 15.636534,0.0772 34.63429,0.0579 31.828353,-0.0323 34.544808,-0.0528 34.585083,-0.26197 z m -58.283417,-6.30255 c -0.08268,-0.21545 -0.01367,-0.34722 1.965794,-3.75365 0.666188,-1.14644 1.837456,-3.17875 2.602819,-4.51626 0.765364,-1.3375 1.810637,-3.15095 2.32283,-4.02989 0.924795,-1.58696 1.764892,-3.03944 4.380384,-7.573407 2.289925,-3.9696 3.423019,-5.92472 4.107307,-7.08704 0.359966,-0.61143 0.934108,-1.61196 1.275872,-2.22339 0.581423,-1.04019 3.524074,-6.119995 5.700043,-9.839805 0.527985,-0.902587 1.054039,-1.677164 1.169008,-1.721282 0.298888,-0.114694 0.457005,0.09225 1.613441,2.111696 0.568972,0.993575 1.649573,2.869558 2.401336,4.168851 0.751762,1.29929 1.750208,3.05021 2.218767,3.89092 0.468559,0.84072 1.300927,2.25483 1.849706,3.14247 0.54878,0.88763 0.997781,1.64856 0.997781,1.69095 0,0.0424 0.385047,0.72313 0.855659,1.51276 0.470612,0.78962 1.085587,1.84214 1.366612,2.33893 0.281024,0.49679 1.12691,1.96631 1.879745,3.2656 0.752835,1.29929 1.909616,3.300337 2.570624,4.446767 0.661007,1.14643 1.690424,2.92862 2.287593,3.96041 0.597169,1.03179 1.771437,3.0641 2.609484,4.51625 0.838047,1.45215 1.89863,3.28122 2.35685,4.0646 0.470603,0.80455 0.798317,1.51504 0.753129,1.6328 -0.07068,0.18419 -2.824687,0.20847 -23.642723,0.20847 -20.730852,0 -23.572258,-0.0249 -23.642061,-0.20675 z m 26.132006,-3.62956 c 0.196704,-0.0755 0.219808,-0.87796 0.219808,-7.63469 0,-4.56916 -0.05164,-7.582257 -0.13079,-7.631177 -0.100262,-0.062 -5.701068,-0.10181 -10.746775,-0.0765 l -0.38596,0.002 0.03856,1.98021 0.03856,1.980197 2.802768,0.0695 c 1.541522,0.0382 2.841863,0.10875 2.889648,0.15674 0.04778,0.048 0.0828,2.47283 0.07782,5.38854 -0.0059,3.47247 0.04155,5.39586 0.137658,5.57543 0.137148,0.25627 0.29972,0.27415 2.49281,0.27415 1.290352,0 2.445008,-0.038 2.565902,-0.0844 z M 57.247841,94.472923 c 0.338266,-0.19824 0.794052,-0.61876 1.012857,-0.9345 0.35885,-0.51782 0.397128,-0.68279 0.390683,-1.68375 -0.0066,-1.01779 -0.04137,-1.15222 -0.42048,-1.62336 -0.84778,-1.0536 -1.920613,-1.50498 -3.249697,-1.36727 -1.629427,0.16883 -2.730257,1.21333 -2.866895,2.72019 -0.191747,2.11463 1.181176,3.39697 3.525721,3.2931 0.764216,-0.0339 1.134379,-0.12696 1.607811,-0.40441 z"
       id="path3"
       sodipodi:nodetypes="cssssssssssssssssssssssssssssssssssssccssssssssssssssssssssssssssssssssssscsssssssssssssssssssssssssssccccccscsssssscssscs" /></g><g
     inkscape:groupmode="layer"
     id="layer2"
     inkscape:label="index.one"
     transform="translate(-12.961185,-53.265855)"><path
       d="m 51.502726,151.15299 c -2.78306,-0.38427 -4.512329,-2.92099 -4.510665,-6.61685 7.26e-4,-2.0828 0.618248,-3.78686 1.859724,-5.1337 0.832084,-0.90271 2.327734,-1.55497 3.565561,-1.55497 0.687096,0 1.602681,0.29076 2.191719,0.69603 0.259179,0.17832 0.520286,0.30788 0.580211,0.28791 0.07529,-0.0251 0.103627,-0.91174 0.09165,-2.87379 l -0.01729,-2.83748 h 2.113119 2.11311 l 0.0584,0.32689 c 0.03203,0.17979 0.04541,4.17413 0.02972,8.87631 l -0.02861,8.54942 h -1.74389 -1.743891 l -0.17136,-0.49592 c -0.09424,-0.27276 -0.220336,-0.51226 -0.280204,-0.53223 -0.05983,-0.02 -0.239045,0.0733 -0.398127,0.20713 -1.05136,0.88465 -2.392918,1.28298 -3.709026,1.10125 z m 2.558844,-3.59656 c 0.340863,-0.0907 0.663248,-0.26159 0.854934,-0.45314 l 0.307725,-0.30754 0.03299,-2.03379 c 0.04374,-2.6949 0.02231,-2.82246 -0.515928,-3.08164 -1.308826,-0.63018 -2.595207,-0.14727 -3.083384,1.15752 -0.262302,0.70105 -0.289209,2.53646 -0.04908,3.34516 0.239173,0.80539 1.005586,1.46494 1.754639,1.50999 0.08297,0.004 0.397106,-0.0565 0.698083,-0.13656 z m 14.590278,3.60995 c -0.138294,-0.0244 -0.523019,-0.0925 -0.854934,-0.15145 -0.331923,-0.0589 -1.051145,-0.29247 -1.598274,-0.51897 -0.892199,-0.36935 -1.080052,-0.49562 -1.821519,-1.22448 -1.363404,-1.34022 -1.884384,-2.6494 -1.884384,-4.73534 0,-1.39624 0.146238,-2.06382 0.68759,-3.13882 0.816961,-1.62234 2.268567,-2.75771 4.255367,-3.32837 0.798205,-0.22928 2.774846,-0.21485 3.579823,0.0261 2.030382,0.6078 3.388504,2.01418 3.937489,4.0774 0.184387,0.69299 0.252821,2.72947 0.108997,3.24375 l -0.07737,0.2766 h -3.811948 c -2.096569,0 -3.883541,0.0275 -3.971049,0.0611 -0.226336,0.0869 -0.197032,0.38641 0.08033,0.82104 0.518612,0.81269 1.266422,1.21609 2.409155,1.29955 0.706912,0.0516 2.188094,-0.0986 2.415912,-0.24505 0.201805,-0.12971 0.812069,-0.3242 1.022184,-0.32578 0.139265,-7.1e-4 0.283344,0.14795 0.46056,0.47625 0.141839,0.26277 0.42928,0.78833 0.638764,1.16791 l 0.380877,0.69016 -0.237945,0.23021 c -0.284062,0.27484 -2.104609,0.98313 -2.953639,1.14913 -0.656342,0.12832 -2.362075,0.22026 -2.765994,0.14909 z m 2.39385,-8.07413 c 0.17218,-0.1092 0.18406,-0.38481 0.03561,-0.82775 -0.294404,-0.87884 -1.30712,-1.28916 -2.517299,-1.0199 -0.526453,0.11713 -0.718521,0.22015 -1.075025,0.57666 -0.476854,0.47686 -0.691821,1.103 -0.43461,1.26592 0.176403,0.11173 3.815824,0.11636 3.991263,0.004 z m -49.117019,7.70507 c -0.02598,-0.0691 -0.05848,-2.16249 -0.07235,-4.65188 l -0.02526,-4.52616 -2.305393,-0.027 c -1.520216,-0.0178 -2.351767,-0.0656 -2.44157,-0.1401 -0.106163,-0.0881 -0.130095,-0.45908 -0.108558,-1.68281 l 0.02763,-1.56978 4.601584,-0.0261 4.601607,-0.0261 v 6.38793 6.38793 h -2.115364 c -1.600124,0 -2.126839,-0.0306 -2.162455,-0.12572 z m 10.079973,0.0607 c -0.09811,-0.0981 -0.08297,-12.43042 0.01554,-12.5855 0.06191,-0.0975 0.488734,-0.12161 1.781466,-0.10059 l 1.700068,0.0276 0.0706,0.25145 c 0.0388,0.13829 0.107754,0.43202 0.153193,0.6527 0.104448,0.50749 0.312857,0.55441 0.751753,0.16925 0.457669,-0.40162 1.547115,-0.98925 2.207472,-1.19065 0.702529,-0.21427 2.295904,-0.23549 2.906797,-0.0387 1.242799,0.40034 1.984122,1.26049 2.474904,2.87165 0.166539,0.54671 0.184148,1.04353 0.187168,5.28052 l 0.004,4.67704 -2.132137,0.0271 -2.132144,0.0271 -0.03036,-4.10067 c -0.03371,-4.56001 -0.04677,-4.65338 -0.703239,-5.05363 -0.66517,-0.40554 -1.573909,-0.24301 -2.495436,0.44633 l -0.352043,0.26333 -0.05027,4.19519 -0.05027,4.19518 -2.118648,0.027 c -1.16525,0.0149 -2.149698,-0.004 -2.187647,-0.0419 z m 45.494362,-0.0375 c 0,-0.10962 0.222519,-0.47869 1.060013,-1.75818 1.950475,-2.97979 2.963255,-4.61422 2.963255,-4.7821 0,-0.17645 -0.640453,-1.19578 -2.930333,-4.66386 -0.435152,-0.65906 -0.791193,-1.25877 -0.791193,-1.33271 0,-0.10806 0.430729,-0.13441 2.197216,-0.13441 2.427744,0 2.291745,-0.035 2.694006,0.69205 0.103484,0.18702 0.233412,0.41333 0.288739,0.50291 0.287488,0.46558 1.219039,2.09085 1.376065,2.40082 0.136191,0.26885 0.467038,0.29916 0.548897,0.0503 0.03179,-0.0968 0.124017,-0.33443 0.204809,-0.52804 0.08081,-0.19363 0.184027,-0.44257 0.229403,-0.55321 0.161871,-0.39469 0.662437,-1.49563 0.909712,-2.00082 l 0.251459,-0.51371 2.187635,-0.0271 c 1.731923,-0.0214 2.187648,-1.1e-4 2.187648,0.1025 0,0.0713 -0.316833,0.64199 -0.704068,1.26823 -0.387242,0.62626 -0.704075,1.15187 -0.704075,1.16805 0,0.0162 -0.543137,0.91897 -1.206968,2.00621 -0.663839,1.08724 -1.206976,2.01955 -1.206976,2.07181 0,0.0522 0.246199,0.44668 0.547113,0.87649 0.853246,1.21876 1.805703,2.58317 2.722171,3.89952 0.462171,0.66384 0.806404,1.24183 0.764957,1.28443 -0.04143,0.0427 -1.065806,0.0652 -2.276344,0.0503 l -2.200972,-0.0271 -0.2798,-0.40233 c -0.153894,-0.22128 -0.720584,-1.09256 -1.259315,-1.93619 -0.538723,-0.84364 -1.032158,-1.53387 -1.096497,-1.53387 -0.0643,0 -0.195924,0.16974 -0.29238,0.37718 -0.294316,0.63296 -1.422055,2.87124 -1.621348,3.21796 l -0.187534,0.32626 -2.18764,6.4e-4 c -1.420214,4.1e-4 -2.187655,-0.0353 -2.187655,-0.10195 z M 22.896993,136.3228 c -0.497666,-0.14303 -0.982034,-0.5024 -1.348194,-1.00028 -0.305104,-0.41487 -0.321079,-0.48178 -0.321079,-1.34463 0,-0.83314 0.02374,-0.943 0.287623,-1.33198 0.57857,-0.85275 1.263331,-1.1851 2.428079,-1.17842 0.971286,0.005 1.585621,0.26009 2.111986,0.87501 0.460426,0.5379 0.582378,0.95168 0.535537,1.81699 -0.03155,0.58241 -0.09305,0.80138 -0.320363,1.14025 -0.323709,0.4826 -0.865468,0.87226 -1.431121,1.02931 -0.475213,0.13195 -1.472792,0.12873 -1.942468,-0.006 z"
       style="fill:#000000;stroke-width:0.723807"
       id="path1-0"
       sodipodi:nodetypes="scsssscccccccccsccsssscccsccssccsssssssscscssscsscssccccsssccccccsscccccsccccscccsscscccccssccccccscssssscscssscsssssssscscssssscssscssccscsscc" /></g></svg>
